<svg width="1920" height="262" viewBox="0 0 1920 262" fill="none" xmlns="http://www.w3.org/2000/svg">
<path d="M125.143 73.8574C129.643 127.357 66.6426 258.357 -2.85741 184.357L-2.85741 5.35742C58.1426 73.8574 120.643 20.3574 125.143 73.8574Z" fill="url(#paint0_linear_27_3745)" fill-opacity="0.41"/>
<path d="M-6.35711 89.3576C8.14285 62.3577 63.1428 39.9572 63.1428 101.358C63.1428 178.358 136.143 132.857 114.143 187.858C99.4155 224.676 46.1429 243.858 -6.3571 203.358C-41.4171 176.311 -47.5551 166.071 -6.35711 89.3576Z" fill="url(#paint1_linear_27_3745)" fill-opacity="0.6"/>
<path d="M1929.14 261.358C1881.14 198.858 1833.14 260.358 1737.64 192.358C1642.14 124.358 1756.58 145.858 1770.14 76.8577C1783.7 7.85767 1839.64 -23.6423 1929.14 20.1578L1929.14 261.358Z" fill="url(#paint2_linear_27_3745)" fill-opacity="0.37"/>
<path d="M1921.64 147.858C1907.14 174.858 1779.64 232.758 1779.64 171.358C1779.64 94.3579 1709.14 97.8579 1739.14 59.8579C1763.71 28.7336 1863.14 8.35786 1915.64 48.8579C1950.7 75.9043 1962.84 71.1444 1921.64 147.858Z" fill="url(#paint3_linear_27_3745)" fill-opacity="0.37"/>
<path d="M1905.52 102.106C1887.3 94.0766 1880.52 114.606 1860.52 154.106C1847.76 179.327 1826.09 181.093 1834.06 192.825C1842.03 204.557 1901.55 198.952 1927.55 181.286C1953.54 163.62 1935.02 115.106 1905.52 102.106Z" fill="url(#paint4_linear_27_3745)" fill-opacity="0.37"/>
<defs>
<linearGradient id="paint0_linear_27_3745" x1="52.8653" y1="49.2562" x2="129.733" y2="179.381" gradientUnits="userSpaceOnUse">
<stop stop-color="#7A00F4"/>
<stop offset="1" stop-color="#10D4FF"/>
</linearGradient>
<linearGradient id="paint1_linear_27_3745" x1="21.6428" y1="74.8576" x2="57.1428" y2="198.858" gradientUnits="userSpaceOnUse">
<stop stop-color="#7A00F4"/>
<stop offset="1" stop-color="#00C2FF"/>
</linearGradient>
<linearGradient id="paint2_linear_27_3745" x1="1824.64" y1="-26.1423" x2="1702.29" y2="240.26" gradientUnits="userSpaceOnUse">
<stop stop-color="#7A00F4"/>
<stop offset="1" stop-color="#10D4FF"/>
</linearGradient>
<linearGradient id="paint3_linear_27_3745" x1="1889.03" y1="180.041" x2="1853.53" y2="56.0415" gradientUnits="userSpaceOnUse">
<stop stop-color="#7A00F4"/>
<stop offset="1" stop-color="#00C2FF"/>
</linearGradient>
<linearGradient id="paint4_linear_27_3745" x1="1926.22" y1="126.264" x2="1838.25" y2="210.812" gradientUnits="userSpaceOnUse">
<stop stop-color="#7A00F4"/>
<stop offset="1" stop-color="#00C2FF"/>
</linearGradient>
</defs>
</svg>
