<svg width="1920" height="1515" viewBox="0 0 1920 1515" fill="none" xmlns="http://www.w3.org/2000/svg">
<path opacity="0.3" d="M72.9777 882.5C-12.5224 1043.41 36.7503 1092.91 72.9778 1178.5C183.478 1439.57 -137.73 1637.2 -84.0222 1370C-36.0693 1131.43 -107.475 1249.09 -107.475 1040.09C-107.475 878.595 -84.0221 681.595 -34.5219 681.595C14.9784 681.595 110.792 811.336 72.9777 882.5Z" fill="url(#paint0_linear_47_1119)"/>
<g style="mix-blend-mode:multiply" opacity="0.4">
<path d="M19.4776 788.594C102.063 855.156 -105.022 927.593 112.478 1130.59C169.814 1184.11 169.46 1280.26 112.478 1332.6C44.9775 1394.6 -12.0001 1465.74 -12.0001 1332.6L-12.0001 1019.5C-12.0001 1019.5 -94.2201 696.958 19.4776 788.594Z" fill="url(#paint1_linear_47_1119)"/>
</g>
<path d="M1660.36 251.171C1986.49 95.2613 2157.54 400.501 2043.18 20.3672L2004.08 -752.338L27.9845 -652.344L-32.5189 276.586C219.724 403.641 424.084 98.8858 774.891 185.146C1104.04 266.08 1270.77 437.416 1660.36 251.171Z" fill="#CCF6FE"/>
<path d="M1638 253.859C1971.59 114.63 2127 428.125 2032 42.6971L2032 -730.997L53.3732 -730.997L-53.9981 193.689C191.502 333.329 411.001 39.2912 757.001 143.169C1081.64 240.635 1239.5 420.178 1638 253.859Z" fill="#A270FF"/>
<path d="M1982.37 255.974C2334.22 173.098 2436.34 507.765 2405.56 111.997L2531.93 -651.308L579.866 -974.464L322.913 -79.7303C542.311 98.1301 806.886 -156.11 1131.27 2.88303C1435.64 152.062 1562.05 354.975 1982.37 255.974Z" fill="#437FEC" fill-opacity="0.33"/>
<defs>
<linearGradient id="paint0_linear_47_1119" x1="18.5248" y1="756.163" x2="-33.7706" y2="1396.27" gradientUnits="userSpaceOnUse">
<stop stop-color="#6C38FF"/>
<stop offset="1" stop-color="#57EBFF"/>
</linearGradient>
<linearGradient id="paint1_linear_47_1119" x1="-444.565" y1="996.029" x2="84.186" y2="1151.03" gradientUnits="userSpaceOnUse">
<stop stop-color="#9800F4"/>
<stop offset="1" stop-color="#00C2FF"/>
</linearGradient>
</defs>
</svg>
